<?xml version="1.0" encoding="UTF-8" standalone="no"?>
<!-- Generator: Adobe Illustrator 18.0.0, SVG Export Plug-In . SVG Version: 6.00 Build 0)  -->

<svg
   version="1.1"
   id="Capa_1"
   x="0px"
   y="0px"
   viewBox="0 0 512 512"
   style="enable-background:new 0 0 512 512;"
   xml:space="preserve"
   sodipodi:docname="leaf.svg"
   inkscape:version="1.1.1 (3bf5ae0d25, 2021-09-20)"
   xmlns:inkscape="http://www.inkscape.org/namespaces/inkscape"
   xmlns:sodipodi="http://sodipodi.sourceforge.net/DTD/sodipodi-0.dtd"
   xmlns="http://www.w3.org/2000/svg"
   xmlns:svg="http://www.w3.org/2000/svg"><defs
   id="defs4173"><inkscape:path-effect
     effect="bspline"
     id="path-effect4714"
     is_visible="true"
     lpeversion="1"
     weight="33.333333"
     steps="2"
     helper_size="0"
     apply_no_weight="true"
     apply_with_weight="true"
     only_selected="false" /><inkscape:path-effect
     effect="bspline"
     id="path-effect4658"
     is_visible="true"
     lpeversion="1"
     weight="33.333333"
     steps="2"
     helper_size="0"
     apply_no_weight="true"
     apply_with_weight="true"
     only_selected="false" /></defs><sodipodi:namedview
   id="namedview4171"
   pagecolor="#ffffff"
   bordercolor="#666666"
   borderopacity="1.0"
   inkscape:pageshadow="2"
   inkscape:pageopacity="0.0"
   inkscape:pagecheckerboard="0"
   showgrid="false"
   inkscape:zoom="0.76464844"
   inkscape:cx="835.02427"
   inkscape:cy="344.60281"
   inkscape:window-width="1920"
   inkscape:window-height="1001"
   inkscape:window-x="-9"
   inkscape:window-y="-9"
   inkscape:window-maximized="1"
   inkscape:current-layer="layer2"
   inkscape:snap-grids="false"
   inkscape:snap-to-guides="false" />

<g
   id="g4140">
</g>
<g
   id="g4142">
</g>
<g
   id="g4144">
</g>
<g
   id="g4146">
</g>
<g
   id="g4148">
</g>
<g
   id="g4150">
</g>
<g
   id="g4152">
</g>
<g
   id="g4154">
</g>
<g
   id="g4156">
</g>
<g
   id="g4158">
</g>
<g
   id="g4160">
</g>
<g
   id="g4162">
</g>
<g
   id="g4164">
</g>
<g
   id="g4166">
</g>
<g
   id="g4168">
</g>
<path
   style="fill:#3cb44a;fill-opacity:1;stroke-width:0.0817369"
   d=""
   id="path18726" /><g
   inkscape:groupmode="layer"
   id="layer1"
   inkscape:label="Layer 1"><path
     style="enable-background:new 0 0 512 512;fill:none;stroke:#000000;stroke-width:1px;stroke-linecap:butt;stroke-linejoin:miter;stroke-opacity:1"
     d="m 448.88766,68.804159 c 4.14085,3.487951 4.52829,10.172561 3.95899,16.457277 -0.5693,6.284715 -2.09502,12.169656 -4.92857,17.727534 -2.83355,5.55788 -6.9748,10.78894 -11.66086,14.71217 -4.68605,3.92324 -9.91711,6.53877 -14.50614,8.06591 -4.58903,1.52714 -8.48839,1.9604 -13.73228,-0.52653 -5.24388,-2.48694 -11.80822,-7.89751 -14.64236,-14.00062 -2.83414,-6.10311 -1.93677,-12.898341 0.28394,-18.51675 2.2207,-5.618409 5.76459,-10.058961 10.01511,-13.982499 4.25053,-3.923537 9.20711,-7.329579 13.53842,-9.57758 4.3313,-2.248001 8.03663,-3.337802 13.83722,-3.737463 5.8006,-0.399662 13.69569,-0.109401 17.83653,3.378551 z"
     id="path4656"
     inkscape:path-effect="#path-effect4658"
     inkscape:original-d="m 452.64102,65.606436 c 0.38843,6.68562 0.77586,13.37023 1.1623,20.05385 -1.52479,5.88617 -3.05052,11.77111 -4.57727,17.655174 -4.14042,5.23226 -8.28167,10.46332 -12.42401,15.69348 -5.23027,2.61664 -10.46133,5.23217 -15.69349,7.84675 -3.92245,0.65491 -7.84574,0.87286 -11.77011,1.30779 -6.56361,-5.40979 -13.12795,-10.82036 -19.69342,-16.23204 0.8984,-6.7945 1.79576,-13.589734 2.69214,-20.386104 3.54502,-4.43972 7.08891,-8.88027 10.63186,-13.3219 4.95778,-3.40518 9.91437,-6.81122 14.87006,-10.21833 3.70648,-1.08884 7.41181,-2.17865 11.11622,-3.26947 7.89639,0.29127 15.79148,0.58153 23.68572,0.8708 z" /><path
     style="enable-background:new 0 0 512 512;fill:none;stroke:#000000;stroke-width:1px;stroke-linecap:butt;stroke-linejoin:miter;stroke-opacity:1"
     d="M 448.88766,68.804156 C 433.30692,85.975067 417.72623,103.14593 402.14559,120.31674"
     id="path4712"
     inkscape:original-d="m 448.88766,68.804156 c -15.57969,17.17186 -31.16038,34.342724 -46.74207,51.512584"
     inkscape:path-effect="#path-effect4714" /><path
     style="enable-background:new 0 0 512 512;fill:#0e9247;fill-opacity:1;stroke-width:0.653895"
     d="m 407.75778,123.85102 c -2.5844,-1.29292 -4.60397,-2.63556 -4.48794,-2.98365 0.34049,-1.02146 45.12472,-50.24668 45.71354,-50.24668 1.26366,0 2.77056,4.560916 3.04717,9.222837 1.01451,17.097895 -9.48298,34.962953 -25.06475,42.656243 -9.0233,4.45513 -12.51301,4.70063 -19.20802,1.35125 z"
     id="path7949" /><path
     style="enable-background:new 0 0 512 512;fill:#3cb44a;fill-opacity:1;stroke-width:0.653895"
     d="m 398.56407,116.99645 c -4.41598,-4.80867 -5.57301,-7.85267 -5.57301,-14.66184 0,-5.449886 0.18102,-6.264181 2.4481,-11.012171 3.99275,-8.362124 14.48764,-17.997488 24.35702,-22.362197 7.19183,-3.180567 19.36465,-3.750404 25.08788,-1.174421 l 2.6664,1.20013 -22.25414,24.521073 c -12.23978,13.486586 -22.66422,24.939586 -23.16541,25.451116 -0.7848,0.80097 -1.27978,0.52875 -3.56684,-1.96169 z"
     id="path18648" /><path
     style="enable-background:new 0 0 512 512;fill:none;stroke:#000000;stroke-width:1px;stroke-linecap:butt;stroke-linejoin:miter;stroke-opacity:1"
     d="m 402.14559,120.31674 c 0.61553,0.2462 0.42211,0.0162 0.16348,0.49041 -0.19228,0.35251 -0.35579,0.76448 -0.57216,0.98085 -0.0338,0.0338 -0.42855,0.22534 -0.49042,0.16347 -0.0127,-0.0127 -0.0127,-0.31421 0,-0.32695 0.24929,-0.24929 -0.12,0.37182 0.16347,-0.0817 0.2526,-0.40415 0.49042,-0.81736 0.73563,-1.22604"
     id="path18831" /></g><g
   inkscape:groupmode="layer"
   id="layer2"
   inkscape:label="Layer 2"
   style="display:none"><g
     id="g4138"
     transform="translate(11.770114,2.6155815)">
	<path
   style="fill:#3cb44a"
   d="m 309.462,124.65 c -8.387,8.398 -12.653,20.045 -13.324,33.708 -13.271,0.166 -24.126,4.983 -32.139,12.93 v -68.129 c 0,-22.054 10.774,-40 32.83,-40 20.594,2.734 38.164,-1.133 49.695,-12.617 C 358.07,39.01 361.922,21.44 359.133,0.862 338.57,-1.904 321,1.909 309.461,13.487 301.073,21.886 296.807,33.532 296.137,47.195 265.697,47.575 248,72.52 248,103.158 v 24.498 c -10.259,-10.492 -24.529,-17.094 -40.127,-17.291 -0.664,-13.67 -4.947,-25.325 -13.326,-33.73 -11.531,-11.547 -29.102,-15.398 -49.679,-12.61 -2.774,20.563 1.046,38.133 12.617,49.672 11.516,11.5 29.093,15.336 49.68,12.633 22.055,0 40.835,17.945 40.835,40 v 65.326 c -10.259,-10.492 -24.529,-17.094 -40.127,-17.291 -0.664,-13.67 -4.947,-25.325 -13.326,-33.73 -11.531,-11.547 -29.102,-15.398 -49.679,-12.61 -2.774,20.563 1.046,38.133 12.617,49.672 11.516,11.5 29.093,15.336 49.68,12.633 22.055,0 40.835,17.945 40.835,40 V 312 h 16 v -97.678 c 0,-22.054 10.775,-40 32.829,-40 0,0.002 0,0.005 0,0.005 20.594,2.745 38.172,-1.13 49.696,-12.615 11.546,-11.531 15.398,-29.102 12.609,-49.679 -20.563,-2.773 -38.133,1.047 -49.672,12.617 z"
   id="path4120" />
	<g
   id="g4126">
		<path
   style="fill:#0e9247"
   d="m 264,103.158 c 0,-22.055 10.773,-40 32.83,-40 v -0.005 h 0.013 -0.001 c 20.587,2.739 38.162,-1.136 49.683,-12.618 11.545,-11.53 15.396,-29.099 12.61,-49.674 L 308.71,51.287 c -3.001,3 -7.071,4.686 -11.314,4.686 H 296 l 10e-4,0.014 v 0 C 269.949,55.987 256,77.106 256,103.159 v 78.722 c 2.233,-3.93 4.888,-7.507 8,-10.592 z"
   id="path4122" />
		<path
   style="fill:#0e9247"
   d="m 359.134,112.038 -50.425,50.426 c -3,3.001 -7.07,4.687 -11.314,4.687 h -1.394 C 269.949,167.151 256,188.27 256,214.323 V 312 h 8 v -97.678 c 0,-22.055 10.774,-40 32.829,-40 l 10e-4,0.007 h 0.014 l -10e-4,0.001 c 20.586,2.738 38.162,-1.137 49.682,-12.619 11.544,-11.529 15.396,-29.098 12.609,-49.673 z"
   id="path4124" />
	</g>
	<path
   style="fill:#ed2c39"
   d="M 360,312 H 152 c -4.4,0 -8,3.6 -8,8 v 32 c 0,4.4 3.6,8 8,8 h 8 l 21.868,138.495 c 1.227,7.777 7.93,13.505 15.804,13.505 H 240 h 16 58.328 c 7.873,0 14.576,-5.728 15.804,-13.505 L 352,360 h 8 c 4.4,0 8,-3.6 8,-8 v -32 c 0,-4.4 -3.6,-8 -8,-8 z"
   id="path4128" />
	<path
   style="fill:#cb202c"
   d="m 352,336 c 0,4.418 -3.582,8 -8,8 H 168 c -8.837,0 -16,7.163 -16,16 H 312 L 292.658,482.495 C 291.43,490.272 284.728,496 276.854,496 h -95.381 l 0.395,2.495 c 1.228,7.777 7.931,13.505 15.805,13.505 h 116.655 c 7.874,0 14.576,-5.728 15.804,-13.505 L 352,360 h 8 c 4.418,0 8,-3.582 8,-8 v -32 c -8.837,0 -16,7.163 -16,16 z"
   id="path4130" />
	<g
   id="g4136">
		<path
   style="fill:#0e9247"
   d="m 207.999,119.159 0.002,-0.022 h -1.395 c -4.243,0 -8.313,-1.686 -11.313,-4.686 L 144.868,64.025 c -2.787,20.575 1.064,38.143 12.61,49.674 11.52,11.482 29.095,15.357 49.682,12.618 h -0.001 0.005 v 0.013 c 22.055,0 40.835,17.945 40.835,40 v -25.862 c -8.675,-12.825 -23.506,-21.307 -40,-21.309 z"
   id="path4132" />
		<path
   style="fill:#0e9247"
   d="m 207.999,223.159 0.002,-0.022 h -1.395 c -4.243,0 -8.313,-1.686 -11.313,-4.686 l -50.425,-50.426 c -2.787,20.575 1.064,38.143 12.61,49.674 11.52,11.482 29.095,15.357 49.682,12.618 h -0.001 0.005 v 0.013 c 22.055,0 40.835,17.945 40.835,40 v -25.862 c -8.675,-12.825 -23.506,-21.307 -40,-21.309 z"
   id="path4134" />
	</g>
</g></g></svg>
