<?xml version="1.0" encoding="UTF-8" standalone="no"?>
<!-- Generator: Adobe Illustrator 18.0.0, SVG Export Plug-In . SVG Version: 6.00 Build 0)  -->

<svg
   version="1.1"
   id="Capa_1"
   x="0px"
   y="0px"
   viewBox="0 0 512 512"
   style="enable-background:new 0 0 512 512;"
   xml:space="preserve"
   sodipodi:docname="plant1.svg"
   inkscape:version="1.1.1 (3bf5ae0d25, 2021-09-20)"
   xmlns:inkscape="http://www.inkscape.org/namespaces/inkscape"
   xmlns:sodipodi="http://sodipodi.sourceforge.net/DTD/sodipodi-0.dtd"
   xmlns="http://www.w3.org/2000/svg"
   xmlns:svg="http://www.w3.org/2000/svg"><defs
   id="defs4173"><inkscape:path-effect
     effect="bspline"
     id="path-effect4714"
     is_visible="true"
     lpeversion="1"
     weight="33.333333"
     steps="2"
     helper_size="0"
     apply_no_weight="true"
     apply_with_weight="true"
     only_selected="false" /><inkscape:path-effect
     effect="bspline"
     id="path-effect4658"
     is_visible="true"
     lpeversion="1"
     weight="33.333333"
     steps="2"
     helper_size="0"
     apply_no_weight="true"
     apply_with_weight="true"
     only_selected="false" /></defs><sodipodi:namedview
   id="namedview4171"
   pagecolor="#ffffff"
   bordercolor="#666666"
   borderopacity="1.0"
   inkscape:pageshadow="2"
   inkscape:pageopacity="0.0"
   inkscape:pagecheckerboard="0"
   showgrid="false"
   inkscape:zoom="1.5292969"
   inkscape:cx="516.90421"
   inkscape:cy="209.57344"
   inkscape:window-width="1920"
   inkscape:window-height="1001"
   inkscape:window-x="-9"
   inkscape:window-y="-9"
   inkscape:window-maximized="1"
   inkscape:current-layer="layer2"
   inkscape:snap-grids="false"
   inkscape:snap-to-guides="false"
   inkscape:object-nodes="false"
   inkscape:snap-nodes="false"
   inkscape:snap-global="false" />

<g
   id="g4140">
</g>
<g
   id="g4142">
</g>
<g
   id="g4144">
</g>
<g
   id="g4146">
</g>
<g
   id="g4148">
</g>
<g
   id="g4150">
</g>
<g
   id="g4152">
</g>
<g
   id="g4154">
</g>
<g
   id="g4156">
</g>
<g
   id="g4158">
</g>
<g
   id="g4160">
</g>
<g
   id="g4162">
</g>
<g
   id="g4164">
</g>
<g
   id="g4166">
</g>
<g
   id="g4168">
</g>
<path
   style="fill:#3cb44a;fill-opacity:1;stroke-width:0.0817369"
   d=""
   id="path18726" /><g
   inkscape:groupmode="layer"
   id="layer1"
   inkscape:label="Layer 1"
   style="display:none"><path
     style="fill:none;stroke:#000000;stroke-width:1px;stroke-linecap:butt;stroke-linejoin:miter;stroke-opacity:1"
     d="m 448.88766,68.804159 c 4.14085,3.487951 4.52829,10.172561 3.95899,16.457277 -0.5693,6.284715 -2.09502,12.169656 -4.92857,17.727534 -2.83355,5.55788 -6.9748,10.78894 -11.66086,14.71217 -4.68605,3.92324 -9.91711,6.53877 -14.50614,8.06591 -4.58903,1.52714 -8.48839,1.9604 -13.73228,-0.52653 -5.24388,-2.48694 -11.80822,-7.89751 -14.64236,-14.00062 -2.83414,-6.10311 -1.93677,-12.898341 0.28394,-18.51675 2.2207,-5.618409 5.76459,-10.058961 10.01511,-13.982499 4.25053,-3.923537 9.20711,-7.329579 13.53842,-9.57758 4.3313,-2.248001 8.03663,-3.337802 13.83722,-3.737463 5.8006,-0.399662 13.69569,-0.109401 17.83653,3.378551 z"
     id="path4656"
     inkscape:path-effect="#path-effect4658"
     inkscape:original-d="m 452.64102,65.606436 c 0.38843,6.68562 0.77586,13.37023 1.1623,20.05385 -1.52479,5.88617 -3.05052,11.77111 -4.57727,17.655174 -4.14042,5.23226 -8.28167,10.46332 -12.42401,15.69348 -5.23027,2.61664 -10.46133,5.23217 -15.69349,7.84675 -3.92245,0.65491 -7.84574,0.87286 -11.77011,1.30779 -6.56361,-5.40979 -13.12795,-10.82036 -19.69342,-16.23204 0.8984,-6.7945 1.79576,-13.589734 2.69214,-20.386104 3.54502,-4.43972 7.08891,-8.88027 10.63186,-13.3219 4.95778,-3.40518 9.91437,-6.81122 14.87006,-10.21833 3.70648,-1.08884 7.41181,-2.17865 11.11622,-3.26947 7.89639,0.29127 15.79148,0.58153 23.68572,0.8708 z" /><path
     style="fill:none;stroke:#000000;stroke-width:1px;stroke-linecap:butt;stroke-linejoin:miter;stroke-opacity:1"
     d="M 448.88766,68.804156 C 433.30692,85.975067 417.72623,103.14593 402.14559,120.31674"
     id="path4712"
     inkscape:original-d="m 448.88766,68.804156 c -15.57969,17.17186 -31.16038,34.342724 -46.74207,51.512584"
     inkscape:path-effect="#path-effect4714" /><path
     style="fill:#0e9247;fill-opacity:1;stroke-width:0.653895"
     d="m 407.75778,123.85102 c -2.5844,-1.29292 -4.60397,-2.63556 -4.48794,-2.98365 0.34049,-1.02146 45.12472,-50.24668 45.71354,-50.24668 1.26366,0 2.77056,4.560916 3.04717,9.222837 1.01451,17.097895 -9.48298,34.962953 -25.06475,42.656243 -9.0233,4.45513 -12.51301,4.70063 -19.20802,1.35125 z"
     id="path7949" /><path
     style="fill:#3cb44a;fill-opacity:1;stroke-width:0.653895"
     d="m 398.56407,116.99645 c -4.41598,-4.80867 -5.57301,-7.85267 -5.57301,-14.66184 0,-5.449886 0.18102,-6.264181 2.4481,-11.012171 3.99275,-8.362124 14.48764,-17.997488 24.35702,-22.362197 7.19183,-3.180567 19.36465,-3.750404 25.08788,-1.174421 l 2.6664,1.20013 -22.25414,24.521073 c -12.23978,13.486586 -22.66422,24.939586 -23.16541,25.451116 -0.7848,0.80097 -1.27978,0.52875 -3.56684,-1.96169 z"
     id="path18648" /><path
     style="fill:none;stroke:#000000;stroke-width:1px;stroke-linecap:butt;stroke-linejoin:miter;stroke-opacity:1"
     d="m 402.14559,120.31674 c 0.61553,0.2462 0.42211,0.0162 0.16348,0.49041 -0.19228,0.35251 -0.35579,0.76448 -0.57216,0.98085 -0.0338,0.0338 -0.42855,0.22534 -0.49042,0.16347 -0.0127,-0.0127 -0.0127,-0.31421 0,-0.32695 0.24929,-0.24929 -0.12,0.37182 0.16347,-0.0817 0.2526,-0.40415 0.49042,-0.81736 0.73563,-1.22604"
     id="path18831" /></g><g
   inkscape:groupmode="layer"
   id="layer2"
   inkscape:label="Layer 2"
   style="display:inline"><g
     id="g4138"
     transform="translate(11.770114,2.6155815)">
	<path
   id="path4120"
   style="fill:#3cb44a"
   transform="translate(-11.770114,-2.6155815)"
   d="m 329.33398,9.8398438 c -0.21875,0.1196236 -0.43983,0.2360192 -0.65039,0.3671872 0.20813,0.0657 0.41392,0.146702 0.61719,0.234375 0.005,-0.112444 0.007,-0.225561 0.0176,-0.335937 0.0112,-0.1138493 0.008,-0.166426 0.0156,-0.2656252 z M 313.07617,46.359375 c -0.019,0.08867 -0.043,0.175486 -0.0586,0.265625 -0.0102,0.05936 0.19173,0.110212 0.17383,0.05273 -0.0336,-0.107778 -0.0786,-0.211644 -0.11524,-0.318359 z m 27.94531,1.095703 c -0.0139,0.0033 -0.029,0.0083 -0.043,0.01172 0.0204,0.01995 0.0402,0.04054 0.0605,0.06055 -0.006,-0.02404 -0.0115,-0.04822 -0.0176,-0.07227 z m -33.02929,1.31836 c -0.0221,0.349598 -0.0687,0.684804 -0.0859,1.037109 -30.44,0.38 -48.13672,25.324882 -48.13672,55.962893 v 24.49804 c -10.259,-10.492 -24.52895,-17.09401 -40.12695,-17.29101 C 218.9785,99.310465 214.69541,87.655 206.31641,79.25 194.78541,67.703 177.21567,63.852625 156.63867,66.640625 c -2.774,20.563 1.04619,38.132875 12.61719,49.671875 11.516,11.5 29.09269,15.33581 49.67969,12.63281 22.055,0 40.83398,17.945 40.83398,40 v 65.32617 c -10.259,-10.492 -24.52895,-17.09401 -40.12695,-17.29101 -0.664,-13.67 -4.94717,-25.32547 -13.32617,-33.73047 -11.531,-11.547 -29.10074,-15.39736 -49.67774,-12.60938 -2.774,20.563 1.04619,38.13288 12.61719,49.67188 11.516,11.5 29.09269,15.33581 49.67969,12.63281 22.055,0 40.83398,17.945 40.83398,40 v 41.66992 h 16 V 216.9375 c 0,-22.054 10.77608,-40 32.83008,-40 v 0.006 c 20.594,2.745 38.17131,-1.1302 49.69531,-12.61524 11.546,-11.531 15.39838,-29.10268 12.60938,-49.67968 -20.563,-2.773 -38.13288,1.04718 -49.67188,12.61718 -8.387,8.39801 -12.65322,20.04404 -13.32422,33.70704 -13.271,0.166 -24.12567,4.98464 -32.13867,12.93164 v -68.12891 c 0,-22.053995 10.77408,-39.999999 32.83008,-39.999999 7.52576,0.999098 14.61191,1.055994 21.17969,0.238281 -1.09455,-0.16093 -2.12574,-0.512155 -3.31836,-1.083984 -0.28508,-0.199061 -0.63365,-0.327949 -0.85547,-0.595704 -0.0738,-0.08907 0.23147,5.46e-4 0.3457,-0.01758 0.13156,-0.02087 0.5214,-0.08829 0.38867,-0.09961 -0.49279,-0.04205 -1.00277,0.11834 -1.48437,0.0059 -1.66916,-0.390131 -1.95639,-0.575523 -2.54102,-1.27539 -0.0972,-0.07084 -0.18163,-0.143255 -0.22851,-0.203125 -0.0262,-0.03346 -0.005,-0.03808 0.0332,-0.0332 -0.007,-0.009 -0.018,-0.02018 -0.0254,-0.0293 -0.78615,-0.312436 -1.41971,-0.50587 -1.99023,-1.105469 -1.69341,-0.428544 -3.07137,-1.961518 -3.50586,-3.63086 -1.34153,-0.689329 -1.39579,-0.840485 -1.6875,-1.623046 -0.2269,-0.501821 -0.47974,-0.992481 -0.6875,-1.501954 -0.0433,-0.04543 -0.13712,-0.14599 -0.16993,-0.179687 -0.0139,0.01561 -0.0309,0.02493 -0.0508,0.02734 0.0253,0.03001 -0.0292,-0.0301 -0.004,0 -0.20144,0.01632 -0.66439,-0.558021 -0.88282,-0.804688 -0.0618,-0.0698 0.0743,-0.0037 0.23047,0.08008 -0.0155,-0.01763 9.5e-4,0.0032 -0.0156,-0.01563 -0.77854,-0.444087 -1.48325,-0.806926 -2.11719,-1.496093 -0.44546,-0.803014 -0.99532,-1.55542 -1.33594,-2.408203 -0.002,-0.0063 -0.005,-0.01698 -0.008,-0.02344 l -0.98828,-0.09766 c -0.27319,-0.388644 -0.58232,-0.757841 -0.88867,-1.128906 z m 2.76367,1.314453 c 0.26376,0.141747 0.54428,0.255313 0.83398,0.318359 0.15838,0.03446 0.30009,-0.127916 0.44922,-0.191406 z m 3.58008,4.853515 c 0.0831,0.159143 0.16982,0.336396 0.23828,0.419922 0.15209,0.185565 0.73244,0.616327 0.57031,0.439453 -0.55061,-0.600718 -0.56586,-0.602548 -0.80859,-0.859375 z m 3.51758,3.339844 c 0.3666,0.168948 1.27093,0.201167 0.95117,0.126953 -0.3086,-0.07162 -0.63124,-0.09334 -0.95117,-0.126953 z" />
	<g
   id="g4126">
		<path
   id="path4122"
   style="fill:#0e9247"
   transform="translate(-11.770114,-2.6155815)"
   d="m 341.02148,47.457031 c -0.0145,0.0035 -0.0303,0.0082 -0.0449,0.01172 0.0214,0.02093 0.0431,0.04153 0.0645,0.0625 -0.006,-0.02481 -0.0133,-0.04941 -0.0195,-0.07422 z m -25.52539,9.816407 c -1.98161,0.853979 -4.13086,1.314453 -6.33007,1.314453 h -1.39649 l 0.002,0.01563 c -26.052,0 -40.00195,21.118879 -40.00195,47.171874 v 78.7207 c 2.233,-3.93 4.888,-7.50679 8,-10.59179 v -68.13086 c 0,-22.055013 10.77308,-40.000003 32.83008,-40.000002 v -0.0039 h 0.0137 c 7.58016,1.00836 14.74677,1.110587 21.35547,0.271485 -1.16647,-0.146191 -2.24648,-0.506554 -3.50781,-1.111328 -0.28508,-0.199061 -0.63365,-0.327949 -0.85547,-0.595704 -0.0738,-0.08907 0.23147,5.46e-4 0.3457,-0.01758 0.13156,-0.02087 0.5214,-0.08829 0.38867,-0.09961 -0.49279,-0.04205 -1.00277,0.11834 -1.48437,0.0059 -1.66916,-0.390131 -1.95639,-0.575523 -2.54102,-1.27539 -0.0972,-0.07084 -0.18163,-0.143255 -0.22851,-0.203125 -0.0262,-0.03346 -0.005,-0.03808 0.0332,-0.0332 -0.007,-0.009 -0.018,-0.02018 -0.0254,-0.0293 -0.78615,-0.312436 -1.41971,-0.50587 -1.99023,-1.105469 -1.69341,-0.428544 -3.07137,-1.961518 -3.50586,-3.63086 -0.56839,-0.292056 -0.87937,-0.484079 -1.10157,-0.671874 z m 2.35743,1.007812 c 0.3666,0.168948 1.27093,0.201167 0.95117,0.126953 -0.3086,-0.07162 -0.63124,-0.09334 -0.95117,-0.126953 z" />
		<path
   style="fill:#0e9247"
   d="m 359.134,112.038 -50.425,50.426 c -3,3.001 -7.07,4.687 -11.314,4.687 h -1.394 C 269.949,167.151 256,188.27 256,214.323 V 312 h 8 v -97.678 c 0,-22.055 10.774,-40 32.829,-40 l 10e-4,0.007 h 0.014 l -10e-4,0.001 c 20.586,2.738 38.162,-1.137 49.682,-12.619 11.544,-11.529 15.396,-29.098 12.609,-49.673 z"
   id="path4124" />
	</g>
	<path
   style="fill:#ed2c39"
   d="M 360,312 H 152 c -4.4,0 -8,3.6 -8,8 v 32 c 0,4.4 3.6,8 8,8 h 8 l 21.868,138.495 c 1.227,7.777 7.93,13.505 15.804,13.505 H 240 h 16 58.328 c 7.873,0 14.576,-5.728 15.804,-13.505 L 352,360 h 8 c 4.4,0 8,-3.6 8,-8 v -32 c 0,-4.4 -3.6,-8 -8,-8 z"
   id="path4128" />
	<path
   style="fill:#cb202c"
   d="m 352,336 c 0,4.418 -3.582,8 -8,8 H 168 c -8.837,0 -16,7.163 -16,16 H 312 L 292.658,482.495 C 291.43,490.272 284.728,496 276.854,496 h -95.381 l 0.395,2.495 c 1.228,7.777 7.931,13.505 15.805,13.505 h 116.655 c 7.874,0 14.576,-5.728 15.804,-13.505 L 352,360 h 8 c 4.418,0 8,-3.582 8,-8 v -32 c -8.837,0 -16,7.163 -16,16 z"
   id="path4130" />
	<g
   id="g4136">
		<path
   style="fill:#0e9247"
   d="m 207.999,119.159 0.002,-0.022 h -1.395 c -4.243,0 -8.313,-1.686 -11.313,-4.686 L 144.868,64.025 c -2.787,20.575 1.064,38.143 12.61,49.674 11.52,11.482 29.095,15.357 49.682,12.618 h -0.001 0.005 v 0.013 c 22.055,0 40.835,17.945 40.835,40 v -25.862 c -8.675,-12.825 -23.506,-21.307 -40,-21.309 z"
   id="path4132" />
		<path
   style="fill:#0e9247"
   d="m 207.999,223.159 0.002,-0.022 h -1.395 c -4.243,0 -8.313,-1.686 -11.313,-4.686 l -50.425,-50.426 c -2.787,20.575 1.064,38.143 12.61,49.674 11.52,11.482 29.095,15.357 49.682,12.618 h -0.001 0.005 v 0.013 c 22.055,0 40.835,17.945 40.835,40 v -25.862 c -8.675,-12.825 -23.506,-21.307 -40,-21.309 z"
   id="path4134" />
	</g>
</g></g></svg>
