<?xml version="1.0" encoding="UTF-8" standalone="no"?>
<!-- Generator: Adobe Illustrator 18.0.0, SVG Export Plug-In . SVG Version: 6.00 Build 0)  -->

<svg
   version="1.1"
   id="Capa_1"
   x="0px"
   y="0px"
   viewBox="0 0 512 512"
   style="enable-background:new 0 0 512 512;"
   xml:space="preserve"
   sodipodi:docname="plant4.svg"
   inkscape:version="1.1.1 (3bf5ae0d25, 2021-09-20)"
   xmlns:inkscape="http://www.inkscape.org/namespaces/inkscape"
   xmlns:sodipodi="http://sodipodi.sourceforge.net/DTD/sodipodi-0.dtd"
   xmlns="http://www.w3.org/2000/svg"
   xmlns:svg="http://www.w3.org/2000/svg"><defs
   id="defs4173"><inkscape:path-effect
     effect="bspline"
     id="path-effect4714"
     is_visible="true"
     lpeversion="1"
     weight="33.333333"
     steps="2"
     helper_size="0"
     apply_no_weight="true"
     apply_with_weight="true"
     only_selected="false" /><inkscape:path-effect
     effect="bspline"
     id="path-effect4658"
     is_visible="true"
     lpeversion="1"
     weight="33.333333"
     steps="2"
     helper_size="0"
     apply_no_weight="true"
     apply_with_weight="true"
     only_selected="false" /></defs><sodipodi:namedview
   id="namedview4171"
   pagecolor="#ffffff"
   bordercolor="#666666"
   borderopacity="1.0"
   inkscape:pageshadow="2"
   inkscape:pageopacity="0.0"
   inkscape:pagecheckerboard="0"
   showgrid="false"
   inkscape:zoom="3.0585937"
   inkscape:cx="335.2848"
   inkscape:cy="197.63985"
   inkscape:window-width="1920"
   inkscape:window-height="1001"
   inkscape:window-x="-9"
   inkscape:window-y="-9"
   inkscape:window-maximized="1"
   inkscape:current-layer="layer2"
   inkscape:snap-grids="false"
   inkscape:snap-to-guides="false"
   inkscape:object-nodes="false"
   inkscape:snap-nodes="false"
   inkscape:snap-global="false" />

<g
   id="g4140">
</g>
<g
   id="g4142">
</g>
<g
   id="g4144">
</g>
<g
   id="g4146">
</g>
<g
   id="g4148">
</g>
<g
   id="g4150">
</g>
<g
   id="g4152">
</g>
<g
   id="g4154">
</g>
<g
   id="g4156">
</g>
<g
   id="g4158">
</g>
<g
   id="g4160">
</g>
<g
   id="g4162">
</g>
<g
   id="g4164">
</g>
<g
   id="g4166">
</g>
<g
   id="g4168">
</g>
<path
   style="fill:#3cb44a;fill-opacity:1;stroke-width:0.0817369"
   d=""
   id="path18726" /><g
   inkscape:groupmode="layer"
   id="layer1"
   inkscape:label="Layer 1"
   style="display:none"><path
     style="fill:none;stroke:#000000;stroke-width:1px;stroke-linecap:butt;stroke-linejoin:miter;stroke-opacity:1"
     d="m 448.88766,68.804159 c 4.14085,3.487951 4.52829,10.172561 3.95899,16.457277 -0.5693,6.284715 -2.09502,12.169656 -4.92857,17.727534 -2.83355,5.55788 -6.9748,10.78894 -11.66086,14.71217 -4.68605,3.92324 -9.91711,6.53877 -14.50614,8.06591 -4.58903,1.52714 -8.48839,1.9604 -13.73228,-0.52653 -5.24388,-2.48694 -11.80822,-7.89751 -14.64236,-14.00062 -2.83414,-6.10311 -1.93677,-12.898341 0.28394,-18.51675 2.2207,-5.618409 5.76459,-10.058961 10.01511,-13.982499 4.25053,-3.923537 9.20711,-7.329579 13.53842,-9.57758 4.3313,-2.248001 8.03663,-3.337802 13.83722,-3.737463 5.8006,-0.399662 13.69569,-0.109401 17.83653,3.378551 z"
     id="path4656"
     inkscape:path-effect="#path-effect4658"
     inkscape:original-d="m 452.64102,65.606436 c 0.38843,6.68562 0.77586,13.37023 1.1623,20.05385 -1.52479,5.88617 -3.05052,11.77111 -4.57727,17.655174 -4.14042,5.23226 -8.28167,10.46332 -12.42401,15.69348 -5.23027,2.61664 -10.46133,5.23217 -15.69349,7.84675 -3.92245,0.65491 -7.84574,0.87286 -11.77011,1.30779 -6.56361,-5.40979 -13.12795,-10.82036 -19.69342,-16.23204 0.8984,-6.7945 1.79576,-13.589734 2.69214,-20.386104 3.54502,-4.43972 7.08891,-8.88027 10.63186,-13.3219 4.95778,-3.40518 9.91437,-6.81122 14.87006,-10.21833 3.70648,-1.08884 7.41181,-2.17865 11.11622,-3.26947 7.89639,0.29127 15.79148,0.58153 23.68572,0.8708 z" /><path
     style="fill:none;stroke:#000000;stroke-width:1px;stroke-linecap:butt;stroke-linejoin:miter;stroke-opacity:1"
     d="M 448.88766,68.804156 C 433.30692,85.975067 417.72623,103.14593 402.14559,120.31674"
     id="path4712"
     inkscape:original-d="m 448.88766,68.804156 c -15.57969,17.17186 -31.16038,34.342724 -46.74207,51.512584"
     inkscape:path-effect="#path-effect4714" /><path
     style="fill:#0e9247;fill-opacity:1;stroke-width:0.653895"
     d="m 407.75778,123.85102 c -2.5844,-1.29292 -4.60397,-2.63556 -4.48794,-2.98365 0.34049,-1.02146 45.12472,-50.24668 45.71354,-50.24668 1.26366,0 2.77056,4.560916 3.04717,9.222837 1.01451,17.097895 -9.48298,34.962953 -25.06475,42.656243 -9.0233,4.45513 -12.51301,4.70063 -19.20802,1.35125 z"
     id="path7949" /><path
     style="fill:#3cb44a;fill-opacity:1;stroke-width:0.653895"
     d="m 398.56407,116.99645 c -4.41598,-4.80867 -5.57301,-7.85267 -5.57301,-14.66184 0,-5.449886 0.18102,-6.264181 2.4481,-11.012171 3.99275,-8.362124 14.48764,-17.997488 24.35702,-22.362197 7.19183,-3.180567 19.36465,-3.750404 25.08788,-1.174421 l 2.6664,1.20013 -22.25414,24.521073 c -12.23978,13.486586 -22.66422,24.939586 -23.16541,25.451116 -0.7848,0.80097 -1.27978,0.52875 -3.56684,-1.96169 z"
     id="path18648" /><path
     style="fill:none;stroke:#000000;stroke-width:1px;stroke-linecap:butt;stroke-linejoin:miter;stroke-opacity:1"
     d="m 402.14559,120.31674 c 0.61553,0.2462 0.42211,0.0162 0.16348,0.49041 -0.19228,0.35251 -0.35579,0.76448 -0.57216,0.98085 -0.0338,0.0338 -0.42855,0.22534 -0.49042,0.16347 -0.0127,-0.0127 -0.0127,-0.31421 0,-0.32695 0.24929,-0.24929 -0.12,0.37182 0.16347,-0.0817 0.2526,-0.40415 0.49042,-0.81736 0.73563,-1.22604"
     id="path18831" /></g><g
   inkscape:groupmode="layer"
   id="layer2"
   inkscape:label="Layer 2"
   style="display:inline"><g
     id="g4138"
     transform="translate(11.770114,2.6155815)">
	<path
   id="path4120"
   style="fill:#3cb44a"
   transform="translate(-11.770114,-2.6155815)"
   d="m 329.33398,9.8398438 c -0.21875,0.1196236 -0.43983,0.2360192 -0.65039,0.3671872 0.20813,0.0657 0.41392,0.146702 0.61719,0.234375 0.005,-0.112444 0.007,-0.225561 0.0176,-0.335937 0.0112,-0.1138522 0.008,-0.166426 0.0156,-0.2656252 z M 313.07617,46.359375 c -0.019,0.08867 -0.043,0.175486 -0.0586,0.265625 -0.0102,0.05936 0.19173,0.110252 0.17383,0.05273 -0.0336,-0.107778 -0.0786,-0.211644 -0.11524,-0.318359 z m 27.94531,1.095703 c -0.0139,0.0033 -0.029,0.0083 -0.043,0.01172 0.0204,0.01995 0.0402,0.04054 0.0605,0.06055 -0.006,-0.02404 -0.0115,-0.04822 -0.0176,-0.07227 z m -33.02929,1.31836 c -0.0221,0.349598 -0.0687,0.684804 -0.0859,1.037109 -30.44,0.38 -48.13672,25.324862 -48.13672,55.962893 v 24.49804 c -9.88253,-10.10698 -23.50145,-16.54425 -38.42969,-17.18359 -0.16089,0.40501 -0.1589,0.41725 -0.63476,1.05469 -1.61279,2.1604 -3.35207,3.46974 -5.01953,4.10937 -0.0216,0.045 -0.0303,0.094 -0.0527,0.13867 -0.0293,0.0586 -0.0606,0.15836 -0.0898,0.2461 0.0298,0.0489 0.0695,0.0906 0.0977,0.14062 0.35646,0.64043 0.0634,1.47523 -0.0625,2.19727 -0.0945,0.54217 -0.3709,1.03805 -0.58984,1.54297 -0.77206,1.7805 -1.71634,3.48276 -2.41016,5.29883 -0.27698,0.72499 -0.608,1.32536 -0.9707,1.81054 2.39688,-0.13361 4.83774,-0.35466 7.32813,-0.68164 22.055,0 40.83398,17.945 40.83398,40 v 65.32617 c -10.259,-10.492 -24.52895,-17.09401 -40.12695,-17.29101 -0.0207,-0.42671 -0.0777,-0.83312 -0.10547,-1.25586 -0.53136,0.70674 -1.20926,1.40143 -2.11328,2.22461 -0.31759,0.20847 -0.63554,0.41654 -0.95313,0.625 0.0146,-0.0743 0.10911,-0.25936 0.043,-0.22266 -0.89125,0.49385 -1.84976,2.8643 -2.8789,3.16211 -0.2956,0.35459 -0.60441,0.69548 -0.92188,1.0293 -0.12628,0.31257 -0.24753,0.62747 -0.38281,0.93555 -0.45094,0.42235 -0.81278,0.97107 -1.3457,1.27734 -0.70519,0.76812 -1.37141,1.59829 -2.25977,2.13086 -0.27376,0.16412 -0.62467,0.39276 -0.99023,0.61914 -0.003,0.003 -0.0146,0.015 -0.0176,0.0176 -0.003,0.003 0.008,-0.0137 0.006,-0.0117 -0.10971,0.0678 -0.21903,0.12596 -0.33008,0.18945 -0.96219,1.12359 -0.68676,1.0876 -2.44336,2.07813 -0.484,0.51569 -1.09641,1.11675 -2.00781,1.8164 -0.13995,0.10743 -0.30215,0.18476 -0.45703,0.27344 -0.067,0.35782 -0.13586,0.71457 -0.20313,1.07227 -0.0393,0.20918 -0.0729,0.41952 -0.11133,0.6289 5.30928,0.31843 10.8963,0.14562 16.76563,-0.625 22.055,0 40.83398,17.945 40.83398,40 v 41.66992 h 16 V 216.9375 c 0,-22.054 10.77608,-40 32.83008,-40 v 0.006 c 2.48734,0.33154 4.92634,0.55671 7.32031,0.69336 -0.20941,-0.60749 -0.4053,-1.26036 -0.59375,-2.02149 -0.0202,-0.0816 -0.0561,-0.24407 -0.0859,-0.36132 -0.071,-0.18335 -0.14999,-0.40172 -0.20703,-0.51368 -0.23325,-0.91767 -0.32746,-1.2446 -0.42968,-1.64648 -0.0298,-0.0795 -0.0742,-0.17507 -0.084,-0.25195 -0.39622,-0.39172 -0.79302,-0.78404 -1.16406,-1.19922 -0.20538,-0.22981 -0.47288,-0.8044 -0.71094,-1.36719 -0.018,-0.037 -0.0419,-0.0743 -0.0586,-0.11133 -2.00267,-1.05483 -3.72072,-2.6781 -5.21875,-4.49609 -0.91994,-1.27316 -2.28865,-2.24609 -2.8711,-3.76367 -0.1134,-0.29548 -0.15501,-0.47467 -0.24023,-0.72266 -11.61068,0.92979 -21.22556,5.52169 -28.48633,12.72266 v -68.12891 c 0,-22.053985 10.77408,-39.999999 32.83008,-39.999999 7.52576,0.999098 14.61191,1.055994 21.17969,0.238281 -1.09455,-0.16093 -2.12574,-0.512155 -3.31836,-1.083984 -0.28508,-0.199062 -0.63365,-0.327949 -0.85547,-0.595704 -0.0738,-0.08907 0.23147,5.66e-4 0.3457,-0.01758 0.13156,-0.02087 0.5214,-0.08829 0.38867,-0.09961 -0.49279,-0.04205 -1.00277,0.11793 -1.48437,0.0059 -1.66916,-0.390131 -1.95639,-0.575523 -2.54102,-1.27539 -0.0972,-0.07084 -0.18163,-0.143255 -0.22851,-0.203125 -0.0262,-0.03346 -0.005,-0.03808 0.0332,-0.0332 -0.007,-0.009 -0.018,-0.02018 -0.0254,-0.0293 -0.78615,-0.312436 -1.41971,-0.50587 -1.99023,-1.105469 -1.69341,-0.428544 -3.07137,-1.961511 -3.50586,-3.63086 -1.34153,-0.689329 -1.39579,-0.840485 -1.6875,-1.623046 -0.2269,-0.501821 -0.47974,-0.992478 -0.6875,-1.501954 -0.0433,-0.04543 -0.13712,-0.14599 -0.16993,-0.179687 -0.0139,0.01561 -0.0309,0.02493 -0.0508,0.02734 0.0253,0.03001 -0.0282,-0.0301 -0.004,0 -0.20144,0.01632 -0.66439,-0.558021 -0.88282,-0.804688 -0.0618,-0.0698 0.0743,-0.0037 0.23047,0.08008 -0.0155,-0.01763 7.5e-4,0.0032 -0.0156,-0.01563 -0.77854,-0.444087 -1.48325,-0.806926 -2.11719,-1.496093 -0.44546,-0.803014 -0.99532,-1.555422 -1.33594,-2.408203 -0.002,-0.0063 -0.005,-0.01698 -0.008,-0.02344 l -0.98828,-0.09766 c -0.27293,-0.388809 -0.58232,-0.757848 -0.88867,-1.128906 z m 2.76367,1.314453 c 0.26376,0.141747 0.54428,0.255313 0.83398,0.318359 0.15838,0.03446 0.30009,-0.127916 0.44922,-0.191406 z m 3.58008,4.853515 c 0.0831,0.159143 0.16982,0.336396 0.23828,0.419922 0.15209,0.185565 0.73244,0.616327 0.57031,0.439453 -0.55061,-0.600718 -0.56586,-0.602548 -0.80859,-0.859375 z m 3.51758,3.339844 c 0.3666,0.168948 1.27093,0.201167 0.95117,0.126953 -0.3086,-0.07162 -0.63124,-0.09334 -0.95117,-0.126953 z M 196.23438,71.849609 c -0.0169,0.03578 -0.034,0.07154 -0.0508,0.107422 0.0438,0.06601 0.0811,0.123756 0.12305,0.1875 0.14801,0.04924 0.26564,0.09453 0.42188,0.144531 0.11416,0.03654 0.1081,-0.02295 0.0332,-0.132812 -0.17922,-0.09739 -0.34654,-0.211593 -0.52734,-0.306641 z M 314.85547,173.67383 c 0.003,0.007 0.003,0.0146 0.006,0.0215 0.0315,0.0794 0.0559,0.10579 0.11523,0.22852 2.5e-4,-0.002 0.002,-0.002 0.002,-0.004 -0.0374,-0.0732 -0.0924,-0.1862 -0.12305,-0.24609 z m 0.44922,0.0898 c -1.4e-4,0.0104 1e-4,0.019 0,0.0293 0.3025,0.25704 0.84493,0.74312 0.64843,0.52344 -0.11817,-0.13216 -0.24895,-0.25238 -0.37109,-0.38086 -0.0926,-0.057 -0.18472,-0.11488 -0.27734,-0.17188 z m 0.0117,0.31836 c 0.002,0.0715 0.003,0.14214 0.008,0.21094 0.29345,0.51038 0.45614,1.10634 0.45117,1.68945 0.94773,2.25973 0.32657,-0.13657 -0.45898,-1.90039 z m -101.13477,45.26172 c -0.0147,0.003 -0.0459,0.044 -0.0937,0.12891 -0.53397,0.94811 -0.92876,1.9651 -1.33594,2.97656 0.23947,-0.27243 0.4853,-0.56594 0.58594,-0.76172 0.31179,-0.60654 0.9465,-2.36803 0.84375,-2.34375 z m -10.26758,6.62305 c -0.0436,0.14252 -0.0872,0.28521 -0.13086,0.42773 0.0112,-2.9e-4 0.0203,-0.002 0.0312,-0.002 0.1454,-0.004 0.067,-0.284 0.0996,-0.42578 z m 4.95117,0.35547 c -0.0867,0.0944 -0.17237,0.17587 -0.27734,0.28906 0.007,-0.003 0.0201,-0.003 0.0273,-0.006 0.7357,-0.81984 0.60976,-0.67495 0.25,-0.2832 z m -2.92773,2.31445 c 0.006,-0.0194 -0.27448,0.34342 -0.70312,0.83008 0.13486,-0.0912 0.30918,-0.20817 0.39648,-0.26953 0.19682,-0.37442 0.30245,-0.54681 0.30664,-0.56055 z m -2.69727,1.91797 c -0.26605,0.2734 -0.4191,0.45387 -0.63867,0.69922 -0.004,0.021 -0.01,0.0415 -0.0137,0.0625 0.36167,-0.41299 0.8855,-1.00132 0.65234,-0.76172 z" />
	<g
   id="g4126">
		<path
   id="path4122"
   style="fill:#0e9247"
   transform="translate(-11.770114,-2.6155815)"
   d="m 341.02148,47.457031 c -0.0145,0.0035 -0.0303,0.0082 -0.0449,0.01172 0.0214,0.02093 0.0431,0.04153 0.0645,0.0625 -0.006,-0.02481 -0.0133,-0.04941 -0.0195,-0.07422 z m -25.52539,9.816407 c -1.98161,0.853979 -4.13086,1.314453 -6.33007,1.314453 h -1.39649 l 0.002,0.01563 c -26.052,0 -40.00195,21.11888 -40.00195,47.171874 v 78.7207 c 2.233,-3.93 4.888,-7.50679 8,-10.59179 v -68.13086 c 0,-22.055016 10.77308,-40.000003 32.83008,-40.000002 v -0.0039 h 0.0137 c 7.58016,1.00836 14.74677,1.110587 21.35547,0.271485 -1.16647,-0.146191 -2.24648,-0.506554 -3.50781,-1.111328 -0.28508,-0.199062 -0.63365,-0.327949 -0.85547,-0.595704 -0.0738,-0.08907 0.23147,5.48e-4 0.3457,-0.01758 0.13156,-0.02087 0.5214,-0.08829 0.38867,-0.09961 -0.49279,-0.04205 -1.00277,0.118299 -1.48437,0.0059 -1.66916,-0.390131 -1.95639,-0.575523 -2.54102,-1.27539 -0.0972,-0.07084 -0.18163,-0.143255 -0.22851,-0.203125 -0.0262,-0.03346 -0.005,-0.03808 0.0332,-0.0332 -0.007,-0.009 -0.018,-0.02018 -0.0254,-0.0293 -0.78615,-0.312436 -1.41971,-0.50587 -1.99023,-1.105469 -1.69341,-0.428544 -3.07137,-1.961517 -3.50586,-3.63086 -0.56839,-0.292056 -0.87937,-0.484079 -1.10157,-0.671874 z m 2.35743,1.007812 c 0.3666,0.168948 1.27093,0.201167 0.95117,0.126953 -0.3086,-0.07162 -0.63124,-0.09334 -0.95117,-0.126953 z" />
		<path
   id="path4124"
   style="fill:#0e9247"
   transform="translate(-11.770114,-2.6155815)"
   d="m 311.60547,169.56055 c -0.80406,0.12431 -1.61574,0.20507 -2.43945,0.20507 h -1.39454 c -26.052,0 -40.00195,21.12083 -40.00195,47.17383 v 97.67578 h 8 V 216.9375 c 0,-22.055 10.77508,-40 32.83008,-40 v 0.008 h 0.0137 c 2.48207,0.33013 4.91742,0.55921 7.30664,0.69531 -0.20985,-0.60835 -0.40496,-1.26291 -0.59375,-2.02539 -0.0202,-0.0816 -0.0561,-0.24407 -0.0859,-0.36132 -0.071,-0.18335 -0.14999,-0.40172 -0.20703,-0.51368 -0.23325,-0.91767 -0.32746,-1.2446 -0.42968,-1.64648 -0.0298,-0.0795 -0.0742,-0.17507 -0.084,-0.25195 -0.39622,-0.39172 -0.79302,-0.78404 -1.16406,-1.19922 -0.20538,-0.22981 -0.47288,-0.8044 -0.71094,-1.36719 -0.018,-0.037 -0.0419,-0.0743 -0.0586,-0.11133 -0.33867,-0.17838 -0.65777,-0.39443 -0.98047,-0.60351 z m 3.25,4.11328 c 0.003,0.007 0.003,0.0146 0.006,0.0215 0.0315,0.0794 0.0559,0.10579 0.11523,0.22852 2.5e-4,-0.002 0.002,-0.002 0.002,-0.004 -0.0374,-0.0732 -0.0924,-0.1862 -0.12305,-0.24609 z m 0.44922,0.0898 c -1.4e-4,0.0104 1e-4,0.019 0,0.0293 0.3025,0.25704 0.8449,0.74312 0.64843,0.52344 -0.11818,-0.13216 -0.24895,-0.25238 -0.37109,-0.38086 -0.0926,-0.057 -0.18472,-0.11488 -0.27734,-0.17188 z m 0.0117,0.31836 c 0.002,0.0715 0.003,0.14214 0.008,0.21094 0.29345,0.51038 0.45614,1.10634 0.45117,1.68945 0.94773,2.25973 0.32657,-0.13657 -0.45898,-1.90039 z" />
	</g>
	<path
   style="fill:#ed2c39"
   d="M 360,312 H 152 c -4.4,0 -8,3.6 -8,8 v 32 c 0,4.4 3.6,8 8,8 h 8 l 21.868,138.495 c 1.227,7.777 7.93,13.505 15.804,13.505 H 240 h 16 58.328 c 7.873,0 14.576,-5.728 15.804,-13.505 L 352,360 h 8 c 4.4,0 8,-3.6 8,-8 v -32 c 0,-4.4 -3.6,-8 -8,-8 z"
   id="path4128" />
	<path
   style="fill:#cb202c"
   d="m 352,336 c 0,4.418 -3.582,8 -8,8 H 168 c -8.837,0 -16,7.163 -16,16 H 312 L 292.658,482.495 C 291.43,490.272 284.728,496 276.854,496 h -95.381 l 0.395,2.495 c 1.228,7.777 7.931,13.505 15.805,13.505 h 116.655 c 7.874,0 14.576,-5.728 15.804,-13.505 L 352,360 h 8 c 4.418,0 8,-3.582 8,-8 v -32 c -8.837,0 -16,7.163 -16,16 z"
   id="path4130" />
	<g
   id="g4136">
		<path
   id="path4132"
   style="fill:#0e9247"
   transform="translate(-11.770114,-2.6155815)"
   d="m 215.43945,121.4707 c -0.12703,0.3562 -0.30079,0.70008 -0.45117,1.04688 -0.77206,1.7805 -1.71634,3.48276 -2.41016,5.29883 -0.27762,0.72676 -0.60891,1.32865 -0.97265,1.81445 2.39487,-0.13606 4.83597,-0.36817 7.32422,-0.69922 h 0.004 v 0.0137 c 22.055,0 40.83594,17.945 40.83594,40 v -25.86133 c -8.675,-12.825 -23.506,-21.30659 -40,-21.30859 l 0.002,-0.0234 h -1.39453 c -0.99281,0 -1.97512,-0.10139 -2.9375,-0.28125 z" />
		<path
   id="path4134"
   style="fill:#0e9247"
   transform="translate(-11.770114,-2.6155815)"
   d="m 211.61328,224.23242 c -0.19207,0.19948 -0.3921,0.38735 -0.6289,0.52344 -0.70519,0.76812 -1.37141,1.59829 -2.25977,2.13086 -0.27376,0.16412 -0.62466,0.39276 -0.99023,0.61914 -0.003,0.003 -0.0146,0.015 -0.0176,0.0176 -0.003,0.003 0.008,-0.0137 0.006,-0.0117 -0.10971,0.0678 -0.21903,0.12596 -0.33008,0.18945 -0.96219,1.12359 -0.68676,1.0876 -2.44336,2.07813 -0.484,0.51569 -1.09641,1.11675 -2.00781,1.8164 -0.13995,0.10743 -0.30213,0.18476 -0.45703,0.27344 -0.067,0.35782 -0.13586,0.71457 -0.20313,1.07227 -0.0425,0.22611 -0.0797,0.45333 -0.12109,0.67968 5.30273,0.31534 10.90827,0.0904 16.76953,-0.68945 h 0.004 v 0.0137 c 22.055,0 40.83594,17.945 40.83594,40 v -25.86133 c -8.675,-12.825 -23.506,-21.30659 -40,-21.30859 l 0.002,-0.0234 h -1.39453 c -2.36207,0 -4.66359,-0.53868 -6.76367,-1.51953 z m -7.69922,1.73438 c -0.0436,0.14252 -0.0872,0.28521 -0.13086,0.42773 0.0112,-2.9e-4 0.0202,-0.002 0.0312,-0.002 0.1454,-0.004 0.067,-0.284 0.0996,-0.42578 z m 4.95117,0.35547 c -0.0867,0.0944 -0.17237,0.17587 -0.27734,0.28906 0.007,-0.003 0.0201,-0.003 0.0273,-0.006 0.7357,-0.81984 0.60976,-0.67495 0.25,-0.2832 z m -2.92773,2.31445 c 0.006,-0.0194 -0.27448,0.34342 -0.70312,0.83008 0.13486,-0.0912 0.30918,-0.20817 0.39648,-0.26953 0.19682,-0.37442 0.30245,-0.54681 0.30664,-0.56055 z m -2.69727,1.91797 c -0.26605,0.2734 -0.4191,0.45387 -0.63867,0.69922 -0.004,0.021 -0.01,0.0415 -0.0137,0.0625 0.36167,-0.41299 0.8855,-1.00132 0.65234,-0.76172 z" />
	</g>
</g><path
     id="path21790"
     style="fill:#ffe680;fill-opacity:0;stroke-width:0.653895"
     d="m 305.57031,50.361328 c -5.46441,0.01787 -11.97507,1.682509 -18.09961,4.628906 -4.69722,2.259741 -6.6312,3.713592 -11.55468,8.681641 -4.94115,4.985875 -6.41781,6.989395 -8.96875,12.179687 C 261.33456,87.271546 259.92383,95.543583 259.92383,117 v 14.04492 l -2.45313,-2.30859 c -7.86122,-7.40082 -17.62193,-12.3749 -27.95312,-14.24219 -7.24478,-1.30945 -7.3942,-1.28458 -10.52539,1.72461 -1.58416,1.52242 -2.87891,3.36255 -2.87891,4.08789 0,1.19779 0.42277,1.31836 4.61133,1.31836 13.01816,0 27.98067,7.20291 36.38281,17.51562 l 2.81641,3.45704 v 46.1582 46.1582 l -2.78711,-2.56836 c -9.11947,-8.40603 -20.75925,-13.47978 -34.25977,-14.93359 l -4.02539,-0.43359 -3.46289,3.39062 c -3.11903,3.05408 -3.3435,3.45733 -2.26562,4.06055 0.65813,0.3683 4.46911,0.91378 8.46875,1.21289 4.02462,0.30099 9.31639,1.17095 11.84961,1.94726 9.20059,2.81955 18.04243,8.61717 23.66601,15.51954 l 2.81641,3.45898 v 33.97656 33.97852 h 3.90234 3.90039 l 0.20117,-54.76367 0.19922,-54.76368 1.49219,-4.90429 c 2.63201,-8.64554 5.80724,-14.21486 11.2168,-19.67578 6.98836,-7.05471 13.36089,-9.88303 24.37109,-10.81641 l 5.06836,-0.42969 -2.94336,-3.14648 c -1.61918,-1.73103 -2.94336,-3.47206 -2.94336,-3.86914 0,-1.55852 -11.81347,1.30949 -17.73828,4.30664 -6.01445,3.04251 -13.77399,10.36621 -18.03906,17.02539 -0.62556,0.97731 -0.76037,-8.37224 -0.63477,-44.20703 0.15839,-45.189222 0.16822,-45.473077 1.64844,-50.349612 2.62051,-8.633239 5.79825,-14.211705 11.21094,-19.675782 7.06573,-7.132812 13.56291,-9.981186 24.5332,-10.755859 7.16088,-0.50567 9.48047,-0.905292 9.48047,-1.634766 0,-0.341257 -1.30676,-1.945927 -2.9043,-3.566406 -2.72371,-2.762829 -3.1203,-2.946197 -6.375,-2.935547 z" /><path
     id="path22014"
     style="fill:#ffe680;fill-opacity:0;stroke-width:0.653895"
     d="m 305.57031,50.361328 c -5.46441,0.01787 -11.97507,1.682509 -18.09961,4.628906 -4.69722,2.259741 -6.6312,3.713592 -11.55468,8.681641 -4.94115,4.985875 -6.41781,6.989395 -8.96875,12.179687 C 261.33456,87.271546 259.92383,95.543583 259.92383,117 v 14.04492 l -2.45313,-2.30859 c -7.86122,-7.40082 -17.62193,-12.3749 -27.95312,-14.24219 -7.24478,-1.30945 -7.3942,-1.28458 -10.52539,1.72461 -1.58416,1.52242 -2.87891,3.36255 -2.87891,4.08789 0,1.19779 0.42277,1.31836 4.61133,1.31836 13.01816,0 27.98067,7.20291 36.38281,17.51562 l 2.81641,3.45704 v 46.1582 46.1582 l -2.78711,-2.56836 c -9.11947,-8.40603 -20.75925,-13.47978 -34.25977,-14.93359 l -4.02539,-0.43359 -3.46289,3.39062 c -3.11903,3.05408 -3.3435,3.45733 -2.26562,4.06055 0.65813,0.3683 4.46911,0.91378 8.46875,1.21289 4.02462,0.30099 9.31639,1.17095 11.84961,1.94726 9.20059,2.81955 18.04243,8.61717 23.66601,15.51954 l 2.81641,3.45898 v 33.97656 33.97852 h 3.90234 3.90039 l 0.20117,-54.76367 0.19922,-54.76368 1.49219,-4.90429 c 2.63201,-8.64554 5.80724,-14.21486 11.2168,-19.67578 6.98836,-7.05471 13.36089,-9.88303 24.37109,-10.81641 l 5.06836,-0.42969 -2.94336,-3.14648 c -1.61918,-1.73103 -2.94336,-3.47206 -2.94336,-3.86914 0,-1.55852 -11.81347,1.30949 -17.73828,4.30664 -6.01445,3.04251 -13.77399,10.36621 -18.03906,17.02539 -0.62556,0.97731 -0.76037,-8.37224 -0.63477,-44.20703 0.15839,-45.189222 0.16822,-45.473077 1.64844,-50.349612 2.62051,-8.633239 5.79825,-14.211705 11.21094,-19.675782 7.06573,-7.132812 13.56291,-9.981186 24.5332,-10.755859 7.16088,-0.50567 9.48047,-0.905292 9.48047,-1.634766 0,-0.341257 -1.30676,-1.945927 -2.9043,-3.566406 -2.72371,-2.762829 -3.1203,-2.946197 -6.375,-2.935547 z" /><path
     id="path22053"
     style="fill:#ffe680;fill-opacity:0;stroke-width:0.653895"
     d="m 305.57031,50.361328 c -5.46441,0.01787 -11.97507,1.682509 -18.09961,4.628906 -4.69722,2.259741 -6.6312,3.713592 -11.55468,8.681641 -4.94115,4.985875 -6.41781,6.989395 -8.96875,12.179687 C 261.33456,87.271546 259.92383,95.543583 259.92383,117 v 14.04492 l -2.45313,-2.30859 c -7.86122,-7.40082 -17.62193,-12.3749 -27.95312,-14.24219 -7.24478,-1.30945 -7.3942,-1.28458 -10.52539,1.72461 -1.58416,1.52242 -2.87891,3.36255 -2.87891,4.08789 0,1.19779 0.42277,1.31836 4.61133,1.31836 13.01816,0 27.98067,7.20291 36.38281,17.51562 l 2.81641,3.45704 v 46.1582 46.1582 l -2.78711,-2.56836 c -9.11947,-8.40603 -20.75925,-13.47978 -34.25977,-14.93359 l -4.02539,-0.43359 -3.46289,3.39062 c -3.11903,3.05408 -3.3435,3.45733 -2.26562,4.06055 0.65813,0.3683 4.46911,0.91378 8.46875,1.21289 4.02462,0.30099 9.31639,1.17095 11.84961,1.94726 9.20059,2.81955 18.04243,8.61717 23.66601,15.51954 l 2.81641,3.45898 v 33.97656 33.97852 h 3.90234 3.90039 l 0.20117,-54.76367 0.19922,-54.76368 1.49219,-4.90429 c 2.63201,-8.64554 5.80724,-14.21486 11.2168,-19.67578 6.98836,-7.05471 13.36089,-9.88303 24.37109,-10.81641 l 5.06836,-0.42969 -2.94336,-3.14648 c -1.61918,-1.73103 -2.94336,-3.47206 -2.94336,-3.86914 0,-1.55852 -11.81347,1.30949 -17.73828,4.30664 -6.01445,3.04251 -13.77399,10.36621 -18.03906,17.02539 -0.62556,0.97731 -0.76037,-8.37224 -0.63477,-44.20703 0.15839,-45.189222 0.16822,-45.473077 1.64844,-50.349612 2.62051,-8.633239 5.79825,-14.211705 11.21094,-19.675782 7.06573,-7.132812 13.56291,-9.981186 24.5332,-10.755859 7.16088,-0.50567 9.48047,-0.905292 9.48047,-1.634766 0,-0.341257 -1.30676,-1.945927 -2.9043,-3.566406 -2.72371,-2.762829 -3.1203,-2.946197 -6.375,-2.935547 z" /><path
     style="fill:#ffdd55;fill-opacity:0;stroke-width:0.326948"
     d="m 259.96143,280.60615 -0.23098,-33.91747 -1.82031,-2.37658 c -2.54682,-3.32509 -7.51078,-7.92233 -11.22218,-10.39311 -7.72241,-5.14102 -16.13902,-7.84903 -25.47784,-8.19739 -4.36135,-0.16269 -6.52842,-0.46338 -8.25257,-1.1451 -0.79239,-0.31331 -0.83113,-0.41011 -0.45457,-1.13594 0.82589,-1.5919 7.04236,-7.66726 7.04236,-6.8825 0,0.31893 1.09091,0.53549 4.08526,0.81097 7.62871,0.70185 13.72927,2.45639 20.64048,5.93627 4.99516,2.51512 9.09769,5.31334 12.93128,8.82004 1.38059,1.26286 2.61818,2.29612 2.75021,2.29612 0.13202,0 0.15078,-20.61376 0.0417,-45.80836 l -0.19837,-45.80835 -1.83495,-2.39568 c -4.20423,-5.489 -11.02758,-10.95032 -17.50507,-14.01083 -6.30725,-2.98006 -11.85209,-4.33519 -18.94884,-4.63098 -6.03332,-0.25147 -5.78491,-0.17145 -5.75032,-1.85214 0.0233,-1.13443 0.18218,-1.482 0.84611,-1.85153 1.51963,-0.84577 3.15243,-2.28356 4.02781,-3.54672 l 0.87105,-1.25693 3.01096,0.26416 c 11.55165,1.01347 23.91111,6.54716 32.71391,14.64698 1.6406,1.50957 2.58827,2.17884 2.68726,1.8978 0.0841,-0.23878 0.2032,-7.86403 0.26468,-16.945 0.12043,-17.791344 0.21809,-18.948647 2.2071,-26.155808 6.00628,-21.763685 21.7139,-35.401354 42.41347,-36.82421 1.75209,-0.120436 3.29372,-0.38081 3.42583,-0.578609 0.16616,-0.248774 0.24174,-0.233654 0.24521,0.04905 0.003,0.224776 0.2658,0.408685 0.58455,0.408685 0.32917,0 0.85115,0.504326 1.20822,1.167373 0.34577,0.642055 1.34138,1.764085 2.21247,2.4934 1.61842,1.355021 2.71464,2.982921 2.37679,3.52957 -0.39522,0.639482 -2.80645,1.028311 -8.17524,1.318315 -3.95255,0.213505 -6.50255,0.532045 -8.82758,1.10272 -17.04149,4.182809 -27.91459,18.751331 -29.91686,40.084662 -0.2368,2.523092 -0.32155,17.095912 -0.25761,44.301402 l 0.0953,40.54151 1.50152,-2.28863 c 7.19295,-10.96351 17.11476,-17.74236 29.47552,-20.1385 4.65497,-0.90236 5.20255,-0.85732 5.92679,0.48751 0.32883,0.6106 1.83356,2.40276 3.34383,3.98257 1.51027,1.57982 2.74595,2.89794 2.74595,2.92917 0,0.0312 -2.17012,0.14264 -4.82248,0.24759 -3.53109,0.13972 -5.69799,0.40861 -8.09195,1.00411 -16.96756,4.22074 -27.75918,18.55707 -29.90015,39.72142 -0.22256,2.20014 -0.34251,21.00618 -0.34251,53.70115 v 50.3153 h -3.70712 -3.70712 z"
     id="path22917" /></g></svg>
